<svg xmlns="http://www.w3.org/2000/svg" width="128" height="128" viewBox="0 0 128 128" fill="none" stroke="#000000" stroke-width="3.4" stroke-linecap="round" stroke-linejoin="round" role="img" aria-label="Lungs"><path fill="none" stroke="#000000" stroke-width="3.4" stroke-linecap="round" stroke-linejoin="round" d="M56 24v18M56 42l-11 7M56 42l11 7M45 49C36 53 31 64 31 75C31 84 36 90 43 88C48 86 50 79 50 72V52ZM67 49C76 53 81 64 81 75C81 84 76 90 69 88C64 86 62 79 62 72V52ZM100 40L90 56h6l-4 12l12-16h-7Z"/></svg>
